<svg xmlns="http://www.w3.org/2000/svg" width="10.599" height="18.375" viewBox="0 0 10.599 18.375"><defs><style>.a{fill:#fff;}</style></defs><path class="a" d="M-145.081,232.555c.035-.055.065-.111.094-.168a1.717,1.717,0,0,0,.083-.18c.023-.06.042-.121.06-.183s.033-.123.044-.186.019-.127.024-.192.008-.126.007-.19a1.714,1.714,0,0,0-.012-.19c-.007-.064-.016-.127-.029-.191s-.03-.123-.049-.184-.04-.122-.066-.182a1.824,1.824,0,0,0-.087-.178c-.03-.056-.062-.111-.1-.165s-.082-.11-.127-.164c-.025-.03-.044-.063-.071-.092l-6.6-6.994a2,2,0,0,0-2.827-.08,2,2,0,0,0-.081,2.827l5.342,5.656-5.379,6.012a2,2,0,0,0,.157,2.824,2,2,0,0,0,2.824-.157l6.6-7.381c.027-.03.045-.064.069-.1C-145.159,232.667-145.118,232.612-145.081,232.555Z" transform="translate(-144.769 240.865) rotate(180)"/></svg>